<?xml version="1.0" encoding="utf-8"?>
<!-- Generator: Adobe Illustrator 23.0.1, SVG Export Plug-In . SVG Version: 6.00 Build 0)  -->
<svg version="1.1" id="Camada_1" xmlns="http://www.w3.org/2000/svg" xmlns:xlink="http://www.w3.org/1999/xlink" x="0px" y="0px"
	 viewBox="0 0 27 25.9" style="enable-background:new 0 0 27 25.9;" xml:space="preserve">
<style type="text/css">
	.st0{fill:#5B5B59;}
	.st1{fill:#FFFFFF;}
</style>
<title>star</title>
<g>
	<g>
		<path class="st0" d="M-21.6-63.6l-4.6,4.8l0.9,6.6c0.1,0.7-0.2,1.4-0.8,1.8c-0.6,0.4-1.3,0.5-2,0.2l-6-2.9l-6,2.9
			c-0.3,0.1-0.5,0.2-0.8,0.2c-0.4,0-0.8-0.1-1.1-0.4c-0.6-0.4-0.9-1.1-0.8-1.8l0.9-6.6l-4.6-4.8c-0.7-0.8-0.7-2,0.1-2.7
			c0.3-0.3,0.6-0.4,1-0.5l6.6-1.2l3.1-5.9c0.5-0.9,1.7-1.3,2.6-0.8c0.3,0.2,0.6,0.5,0.8,0.8l3.1,5.9l6.6,1.2c1,0.2,1.7,1.2,1.5,2.2
			C-21.2-64.3-21.4-63.9-21.6-63.6L-21.6-63.6z"/>
	</g>
</g>
<path d="M10.8-29.2c-3-3-7.8-3-10.8,0L0-29.1l-0.1-0.1c-3-2.9-7.8-2.9-10.8,0.1c-2.9,3-2.9,7.7,0,10.6L-0.8-7.8
	c0.4,0.4,1.1,0.5,1.5,0c0,0,0,0,0,0l10-10.6C13.8-21.4,13.8-26.2,10.8-29.2C10.8-29.2,10.8-29.2,10.8-29.2z M9.2-19.9L0-10.1
	l-9.3-9.8c-2.1-2.1-2.1-5.6,0-7.7s5.6-2.1,7.7,0l0.8,0.8c0.4,0.4,1.1,0.4,1.5,0l0.8-0.8c2.1-2.1,5.6-2.1,7.7,0S11.4-22,9.2-19.9
	L9.2-19.9z"/>
<path class="st1" d="M2.5,22.9c-0.1,0.7,0.4,1.3,1.1,1.4c0.2,0,0.5,0,0.7-0.1l5.2-2.2c1.3,0.4,2.7,0.5,4.1,0.5c7.2,0,13-4.7,13-10.5
	s-5.8-10.5-13-10.5s-13,4.7-13,10.5c0,2.4,1,4.7,2.7,6.4L2.5,22.9z M3,12.1c0-4.4,4.7-8,10.5-8S24,7.6,24,12.1s-4.7,8-10.5,8
	c-1.3,0-2.6-0.2-3.8-0.5c-0.3-0.1-0.6-0.1-0.9,0l-3.5,1.5l0.4-2.9c0.1-0.4-0.1-0.8-0.4-1.1C3.8,15.6,3,13.9,3,12.1z"/>
</svg>
