<?xml version="1.0" encoding="utf-8"?>
<!-- Generator: Adobe Illustrator 23.0.1, SVG Export Plug-In . SVG Version: 6.00 Build 0)  -->
<svg version="1.1" id="Camada_1" xmlns="http://www.w3.org/2000/svg" xmlns:xlink="http://www.w3.org/1999/xlink" x="0px" y="0px"
	 viewBox="0 0 27 25.9" style="enable-background:new 0 0 27 25.9;" xml:space="preserve">
<style type="text/css">
	.st0{fill:#5B5B59;}
	.st1{fill:#FFFFFF;}
</style>
<title>star</title>
<g>
	<g>
		<path class="st0" d="M-21.6-63.6l-4.6,4.8l0.9,6.6c0.1,0.7-0.2,1.4-0.8,1.8c-0.6,0.4-1.3,0.5-2,0.2l-6-2.9l-6,2.9
			c-0.3,0.1-0.5,0.2-0.8,0.2c-0.4,0-0.8-0.1-1.1-0.4c-0.6-0.4-0.9-1.1-0.8-1.8l0.9-6.6l-4.6-4.8c-0.7-0.8-0.7-2,0.1-2.7
			c0.3-0.3,0.6-0.4,1-0.5l6.6-1.2l3.1-5.9c0.5-0.9,1.7-1.3,2.6-0.8c0.3,0.2,0.6,0.5,0.8,0.8l3.1,5.9l6.6,1.2c1,0.2,1.7,1.2,1.5,2.2
			C-21.2-64.3-21.4-63.9-21.6-63.6L-21.6-63.6z"/>
	</g>
</g>
<path class="st1" d="M24.3,3.2c-3-3-7.8-3-10.8,0l-0.1,0.1l-0.1-0.1c-3-2.9-7.8-2.9-10.8,0.1c-2.9,3-2.9,7.7,0,10.6l10.1,10.6
	c0.4,0.4,1.1,0.5,1.5,0c0,0,0,0,0,0l10-10.6C27.3,11,27.3,6.2,24.3,3.2C24.3,3.2,24.3,3.2,24.3,3.2z M22.7,12.5l-9.3,9.8l-9.3-9.8
	c-2.1-2.1-2.1-5.6,0-7.7s5.6-2.1,7.7,0l0.8,0.8c0.4,0.4,1.1,0.4,1.5,0L15,4.7c2.1-2.1,5.6-2.1,7.7,0C24.9,6.9,24.9,10.3,22.7,12.5
	L22.7,12.5z"/>
<path class="st1" d="M39.1,8.1c-0.1,0.7,0.4,1.3,1.1,1.4c0.2,0,0.5,0,0.7-0.1L46,7.3c1.3,0.4,2.7,0.5,4.1,0.5c7.2,0,13-4.7,13-10.5
	s-5.8-10.5-13-10.5S37-8.6,37-2.7c0,2.4,1,4.7,2.7,6.4L39.1,8.1z M39.5-2.7c0-4.4,4.7-8,10.5-8s10.5,3.6,10.5,8s-4.7,8-10.5,8
	c-1.3,0-2.6-0.2-3.8-0.5c-0.3-0.1-0.6-0.1-0.9,0l-3.5,1.5l0.4-2.9c0.1-0.4-0.1-0.8-0.4-1.1C40.3,0.9,39.5-0.9,39.5-2.7z"/>
</svg>
