<?xml version="1.0" encoding="utf-8"?>
<!-- Generator: Adobe Illustrator 23.0.1, SVG Export Plug-In . SVG Version: 6.00 Build 0)  -->
<svg version="1.1" id="Camada_1" xmlns="http://www.w3.org/2000/svg" xmlns:xlink="http://www.w3.org/1999/xlink" x="0px" y="0px"
	 viewBox="0 0 111.58 25" style="enable-background:new 0 0 111.58 25;" xml:space="preserve">
<style type="text/css">
	.st0{fill:#FFFFFF;}
	.st1{opacity:0.702;enable-background:new    ;}
	.st2{clip-path:url(#SVGID_2_);}
	.st3{clip-path:url(#SVGID_4_);fill:#FFFFFF;}
</style>
<g>
	<path class="st0" d="M106.2,12.87c0,3.97-3.22,7.2-7.2,7.2c-3.97,0-7.2-3.22-7.2-7.2c0-3.97,3.22-7.2,7.2-7.2
		C102.97,5.67,106.2,8.89,106.2,12.87z M99,0.87c-6.63,0-12,5.37-12,12c0,6.63,5.37,12,12,12c6.63,0,12-5.37,12-12
		C111,6.24,105.62,0.87,99,0.87z"/>
	<path class="st0" d="M79.8,20.07h-9.6c-3.97,0-7.2-3.22-7.2-7.2v-9.6c0-1.33-1.07-2.4-2.4-2.4c-1.33,0-2.4,1.07-2.4,2.4v9.6
		c0,6.63,5.37,12,12,12h9.6c1.32,0,2.4-1.07,2.4-2.4C82.2,21.14,81.12,20.07,79.8,20.07z"/>
	<path class="st0" d="M22.19,20.07h-9.6c-3.97,0-7.2-3.22-7.2-7.2v-9.6c0-1.33-1.07-2.4-2.4-2.4s-2.4,1.07-2.4,2.4v9.6
		c0,6.63,5.37,12,12,12h9.6c1.32,0,2.4-1.07,2.4-2.4C24.59,21.14,23.51,20.07,22.19,20.07z"/>
	<path class="st0" d="M43.15,11.23l-9.66-9.67l-0.01,0c-0.94-0.94-2.46-0.94-3.39,0c-0.94,0.94-0.94,2.46,0,3.39
		c0.04,0.04,0.08,0.07,0.11,0.1l8.78,8.78v0.01v8.61c0,1.33,1.07,2.4,2.4,2.4c1.32,0,2.4-1.07,2.4-2.4v-3.81v-5.79v-0.09
		C43.79,12.2,43.56,11.64,43.15,11.23z"/>
	<g class="st1">
		<g>
			<defs>
				<rect id="SVGID_1_" x="40.01" y="0.13" width="13.14" height="13.14"/>
			</defs>
			<clipPath id="SVGID_2_">
				<use xlink:href="#SVGID_1_"  style="overflow:visible;"/>
			</clipPath>
			<g class="st2">
				<defs>
					<rect id="SVGID_3_" x="40.01" y="0.13" width="13.14" height="13.14"/>
				</defs>
				<clipPath id="SVGID_4_">
					<use xlink:href="#SVGID_3_"  style="overflow:visible;"/>
				</clipPath>
				<path class="st3" d="M51.51,1.57c-0.94-0.94-2.46-0.94-3.39,0l-7.31,7.31l2.35,2.35l0,0c0.39,0.39,0.62,0.9,0.63,1.45l7.72-7.72
					C52.44,4.03,52.44,2.51,51.51,1.57z"/>
			</g>
		</g>
	</g>
</g>
</svg>
