<?xml version="1.0" encoding="utf-8"?>
<!-- Generator: Adobe Illustrator 23.0.1, SVG Export Plug-In . SVG Version: 6.00 Build 0)  -->
<svg version="1.1" id="Camada_1" xmlns="http://www.w3.org/2000/svg" xmlns:xlink="http://www.w3.org/1999/xlink" x="0px" y="0px"
	 viewBox="0 0 26.3 25" style="enable-background:new 0 0 26.3 25;" xml:space="preserve">
<style type="text/css">
	.st0{fill:#FFFFFF;}
</style>
<g>
	<path class="st0" d="M25.1,6.2c0-0.8-0.4-1.3-1.3-1.3H2.5C1.6,5,1.2,5.4,1.2,6.2c0,0.8,0.4,1.3,1.3,1.3h21.3
		C24.6,7.5,25.1,7.1,25.1,6.2z"/>
	<path class="st0" d="M25.1,12.5c0-0.8-0.4-1.3-1.3-1.3H10c-0.8,0-1.3,0.4-1.3,1.3c0,0.8,0.4,1.3,1.3,1.3h13.8
		C24.6,13.8,25.1,13.3,25.1,12.5z"/>
	<path class="st0" d="M25.1,18.8c0-0.8-0.4-1.3-1.3-1.3H2.5c-0.8,0-1.3,0.4-1.3,1.3c0,0.8,0.4,1.3,1.3,1.3h21.3
		C24.6,20,25.1,19.6,25.1,18.8z"/>
</g>
</svg>
