<?xml version="1.0" encoding="utf-8"?>
<!-- Generator: Adobe Illustrator 23.0.1, SVG Export Plug-In . SVG Version: 6.00 Build 0)  -->
<svg version="1.1" id="Camada_1" xmlns="http://www.w3.org/2000/svg" xmlns:xlink="http://www.w3.org/1999/xlink" x="0px" y="0px"
	 viewBox="0 0 23.7 23.7" style="enable-background:new 0 0 23.7 23.7;" xml:space="preserve">
<style type="text/css">
	.st0{fill:#FFFFFF;}
</style>
<title>user interface, ui basic, app, search, magnifying glass</title>
<g>
	<path class="st0" d="M10.2,19.3c-5.1,0-9.2-4.1-9.2-9.2C1,5.1,5.1,1,10.1,1c5.1,0,9.2,4.1,9.2,9.2c0,2.4-1,4.8-2.7,6.5
		C14.9,18.4,12.6,19.3,10.2,19.3z M10.2,2.8c-4.1,0-7.3,3.3-7.3,7.4c0,4.1,3.3,7.3,7.4,7.3c4.1,0,7.3-3.3,7.3-7.4
		c0-2-0.8-3.8-2.2-5.2C14,3.6,12.1,2.8,10.2,2.8L10.2,2.8z"/>
	<path class="st0" d="M21.9,18l-4.1-4.1c-0.4-0.4-0.9-0.4-1.3,0c0,0-0.1,0.1-0.1,0.2c-0.3,0.5-0.6,0.9-1,1.3l0,0
		c-0.4,0.4-0.8,0.7-1.3,1c-0.4,0.3-0.6,0.8-0.3,1.3c0,0.1,0.1,0.1,0.1,0.2l4.1,4.1c1,1.1,2.8,1.2,3.9,0.1c1.1-1,1.2-2.8,0.1-3.9
		C21.9,18,21.9,18,21.9,18z"/>
</g>
</svg>
