<?xml version="1.0" encoding="UTF-8" standalone="no"?>
<svg
   xmlns:dc="http://purl.org/dc/elements/1.1/"
   xmlns:cc="http://creativecommons.org/ns#"
   xmlns:rdf="http://www.w3.org/1999/02/22-rdf-syntax-ns#"
   xmlns:svg="http://www.w3.org/2000/svg"
   xmlns="http://www.w3.org/2000/svg"
   xmlns:sodipodi="http://sodipodi.sourceforge.net/DTD/sodipodi-0.dtd"
   xmlns:inkscape="http://www.inkscape.org/namespaces/inkscape"
   version="1.1"
   id="Camada_1"
   x="0px"
   y="0px"
   viewBox="0 0 27 25.9"
   style="enable-background:new 0 0 27 25.9;"
   xml:space="preserve"
   sodipodi:docname="starPressed.svg"
   inkscape:version="1.0.2 (394de47547, 2021-03-26)"><metadata
   id="metadata17"><rdf:RDF><cc:Work
       rdf:about=""><dc:format>image/svg+xml</dc:format><dc:type
         rdf:resource="http://purl.org/dc/dcmitype/StillImage" /><dc:title>star</dc:title></cc:Work></rdf:RDF></metadata><defs
   id="defs15" /><sodipodi:namedview
   pagecolor="#ffffff"
   bordercolor="#666666"
   borderopacity="1"
   objecttolerance="10"
   gridtolerance="10"
   guidetolerance="10"
   inkscape:pageopacity="0"
   inkscape:pageshadow="2"
   inkscape:window-width="1360"
   inkscape:window-height="704"
   id="namedview13"
   showgrid="false"
   inkscape:zoom="21.235522"
   inkscape:cx="13.5"
   inkscape:cy="12.95"
   inkscape:window-x="0"
   inkscape:window-y="27"
   inkscape:window-maximized="1"
   inkscape:current-layer="Camada_1" />
<style
   type="text/css"
   id="style2">
	.st0{fill:#5B5B59;}
</style>
<title
   id="title4">star</title>
<g
   id="g10"
   style="fill:#35d9d0;fill-opacity:1">
	<g
   id="g8"
   style="fill:#35d9d0;fill-opacity:1">
		<path
   class="st0"
   d="M25.9,11.8l-4.6,4.8l0.9,6.6c0.1,0.7-0.2,1.4-0.8,1.8c-0.6,0.4-1.3,0.5-2,0.2l-6-2.9l-6,2.9    c-0.3,0.1-0.5,0.2-0.8,0.2c-0.4,0-0.8-0.1-1.1-0.4c-0.6-0.4-0.9-1.1-0.8-1.8l0.9-6.6l-4.6-4.8c-0.7-0.8-0.7-2,0.1-2.7    c0.3-0.3,0.6-0.4,1-0.5l6.6-1.2l3.1-5.9c0.5-0.9,1.7-1.3,2.6-0.8c0.3,0.2,0.6,0.5,0.8,0.8l3.1,5.9l6.6,1.2c1,0.2,1.7,1.2,1.5,2.2    C26.4,11.2,26.2,11.5,25.9,11.8L25.9,11.8z"
   id="path6"
   style="fill:#35d9d0;fill-opacity:1" />
	</g>
</g>
</svg>
