<?xml version="1.0" encoding="utf-8"?>
<!-- Generator: Adobe Illustrator 23.0.1, SVG Export Plug-In . SVG Version: 6.00 Build 0)  -->
<svg version="1.1" id="Camada_1" xmlns="http://www.w3.org/2000/svg" xmlns:xlink="http://www.w3.org/1999/xlink" x="0px" y="0px"
	 viewBox="0 0 27 25.9" style="enable-background:new 0 0 27 25.9;" xml:space="preserve">
<style type="text/css">
	.st0{fill:#5B5B59;}
</style>
<title>star</title>
<g>
	<g>
		<path class="st0" d="M25.9,11.8l-4.6,4.8l0.9,6.6c0.1,0.7-0.2,1.4-0.8,1.8c-0.6,0.4-1.3,0.5-2,0.2l-6-2.9l-6,2.9
			c-0.3,0.1-0.5,0.2-0.8,0.2c-0.4,0-0.8-0.1-1.1-0.4c-0.6-0.4-0.9-1.1-0.8-1.8l0.9-6.6l-4.6-4.8c-0.7-0.8-0.7-2,0.1-2.7
			c0.3-0.3,0.6-0.4,1-0.5l6.6-1.2l3.1-5.9c0.5-0.9,1.7-1.3,2.6-0.8c0.3,0.2,0.6,0.5,0.8,0.8l3.1,5.9l6.6,1.2c1,0.2,1.7,1.2,1.5,2.2
			C26.4,11.2,26.2,11.5,25.9,11.8L25.9,11.8z"/>
	</g>
</g>
</svg>
