<?xml version="1.0" encoding="UTF-8" standalone="no"?>
<svg
   xmlns:dc="http://purl.org/dc/elements/1.1/"
   xmlns:cc="http://creativecommons.org/ns#"
   xmlns:rdf="http://www.w3.org/1999/02/22-rdf-syntax-ns#"
   xmlns:svg="http://www.w3.org/2000/svg"
   xmlns="http://www.w3.org/2000/svg"
   version="1.1"
   id="Camada_1"
   x="0px"
   y="0px"
   viewBox="0 0 27 25.9"
   style="enable-background:new 0 0 27 25.9;"
   xml:space="preserve"><metadata
   id="metadata17"><rdf:RDF><cc:Work
       rdf:about=""><dc:format>image/svg+xml</dc:format><dc:type
         rdf:resource="http://purl.org/dc/dcmitype/StillImage" /><dc:title>star</dc:title></cc:Work></rdf:RDF></metadata><defs
   id="defs15" />
<style
   type="text/css"
   id="style2">
	.st0{fill:#5B5B59;}
</style>
<title
   id="title4">star</title>
<g
   id="g10">
	<g
   id="g8">
		<path
   class="st0"
   d="m 25.9,11.8 -4.6,4.8 0.9,6.6 c 0.1,0.7 -0.2,1.4 -0.8,1.8 -0.6,0.4 -1.3,0.5 -2,0.2 l -6,-2.9 -6,2.9 C 7.1,25.3 6.9,25.4 6.6,25.4 6.2,25.4 5.8,25.3 5.5,25 4.9,24.6 4.6,23.9 4.7,23.2 L 5.6,16.6 1,11.8 C 0.3,11 0.3,9.8 1.1,9.1 1.4,8.8 1.7,8.7 2.1,8.6 L 8.7,7.4 11.8,1.5 c 0.5,-0.9 1.7,-1.3 2.6,-0.8 0.3,0.2 0.6,0.5 0.8,0.8 l 3.1,5.9 6.6,1.2 c 1,0.2 1.7,1.2 1.5,2.2 0,0.4 -0.2,0.7 -0.5,1 z"
   id="path6" />
	</g>
</g>
</svg>
